<svg xmlns="http://www.w3.org/2000/svg" viewBox="0 0 121.05 103.83"><defs><style>.cls-1{fill:#fff;}.cls-2{fill:none;stroke:#381207;stroke-miterlimit:10;stroke-width:2px;}</style></defs><title>兔子_1</title><g id="图层_2" data-name="图层 2"><g id="图层_1-2" data-name="图层 1"><path class="cls-1" d="M74.08,45.18a39.11,39.11,0,0,1,28.22,6,34.22,34.22,0,0,1,15,23,33.36,33.36,0,0,1-.5,13.2Q94.62,80,66.11,79H66a142.56,142.56,0,0,0-24.17,3.89C40.84,64.77,54.8,48.3,74.08,45.18Z"/><path class="cls-1" d="M104,84.57c-.09,2-.72,11.2-4.92,14.8a5.83,5.83,0,0,1-4.86,1.37,5.69,5.69,0,0,1-4.18-2.57c-3.36-5-1-15.46-.65-16.75Q97,82.71,104,84.57Z"/><path class="cls-1" d="M65.27,80.7c0,3.38-.45,16-5.09,20.08a4.67,4.67,0,0,1-3.94,1.2,6.12,6.12,0,0,1-4.37-2.64c-3.52-5-1.85-15-1.57-16.58A134.63,134.63,0,0,1,65.27,80.7Z"/><path class="cls-1" d="M96.68,43.1c.24-1.51.51-3.22.78-5.36C98.67,28,91,23.85,82.16,19,76.93,16.14,71,12.9,65.88,8.05,63.66,6,62.76,4.31,63.34,3.43c2.65-4,28,.48,34.6,3.34C119.5,16.1,113.48,45.1,110.32,56a37.88,37.88,0,0,0-7.12-6.18,39.63,39.63,0,0,0-7-3.73C96.36,45.14,96.51,44.18,96.68,43.1Z"/><path class="cls-1" d="M19.09,29.37A54.62,54.62,0,0,1,6.78,26.11c-2.3-1-5-2.6-5-4.61C2,17.5,12,13.16,15.75,11.85c12.14-3.19,22.91,0,32,9.6,7.38,7.73,12.15,18,14.93,25.56a40.75,40.75,0,0,0-11.26,7.85C40.78,33.3,29.75,31.29,19.09,29.37Z"/><path class="cls-2" d="M120.7,89.64C106,84.18,88.06,80.57,66.08,79.82a146.74,146.74,0,0,0-30,5.39"/><path class="cls-2" d="M110.64,57.74C113.92,47.16,121.31,16,98.26,6,90.45,2.62,51.39-4.54,65.32,8.63S98.47,23,96.64,37.63c-.51,4.06-1,6.56-1.32,9.12"/><path class="cls-2" d="M41.11,83.89C39.5,65,53.69,47.64,73.94,44.35c21.17-3.43,40.93,9.87,44.14,29.7a34.31,34.31,0,0,1-.75,14.47"/><path class="cls-2" d="M63.78,47.57c-5.36-15-19.66-44-48.25-36.53,0,0-25.36,8.78-9.08,15.8C22,33.53,36.57,25.77,51.2,56.19"/><line class="cls-2" x1="66.31" y1="63.47" x2="66.81" y2="71.12"/><line class="cls-2" x1="98.98" y1="66.51" x2="96.99" y2="73.74"/><path class="cls-2" d="M49.53,82.38s-3.85,18.95,6.59,20.39,10-22.95,10-22.95"/><path class="cls-2" d="M88.67,81.07s-5,19,5.48,20.47,10.72-17.38,10.72-17.38"/></g></g></svg>